<svg width="40" height="40" viewBox="0 0 40 40" fill="none" xmlns="http://www.w3.org/2000/svg">
<path d="M11.6701 28.3334L12.7968 24.1934C12.0544 22.9208 11.6643 21.4734 11.6668 20.0001C11.6668 15.3976 15.3976 11.6667 20.0001 11.6667C24.6026 11.6667 28.3334 15.3976 28.3334 20.0001C28.3334 24.6026 24.6026 28.3334 20.0001 28.3334C18.5274 28.3358 17.0806 27.9461 15.8084 27.2042L11.6701 28.3334ZM16.9926 16.0901C16.885 16.0968 16.7798 16.1251 16.6834 16.1734C16.593 16.2246 16.5105 16.2886 16.4384 16.3634C16.3384 16.4576 16.2818 16.5392 16.2209 16.6184C15.9129 17.0192 15.7473 17.5113 15.7501 18.0167C15.7518 18.4251 15.8584 18.8226 16.0251 19.1942C16.3659 19.9459 16.9268 20.7417 17.6676 21.4792C17.8459 21.6567 18.0201 21.8351 18.2076 22.0009C19.1271 22.8105 20.2228 23.3943 21.4076 23.7059L21.8818 23.7784C22.0359 23.7867 22.1901 23.7751 22.3451 23.7676C22.5878 23.7551 22.8248 23.6893 23.0393 23.5751C23.1484 23.5189 23.2549 23.4577 23.3584 23.3917C23.3584 23.3917 23.3943 23.3684 23.4626 23.3167C23.5751 23.2334 23.6443 23.1742 23.7376 23.0767C23.8068 23.0051 23.8668 22.9209 23.9126 22.8251C23.9776 22.6892 24.0426 22.4301 24.0693 22.2142C24.0893 22.0492 24.0834 21.9592 24.0809 21.9034C24.0776 21.8142 24.0034 21.7217 23.9226 21.6826L23.4376 21.4651C23.4376 21.4651 22.7126 21.1492 22.2701 20.9476C22.2234 20.9272 22.1734 20.9157 22.1226 20.9134C22.0656 20.9076 22.008 20.914 21.9536 20.9322C21.8993 20.9505 21.8495 20.9802 21.8076 21.0192V21.0176C21.8034 21.0176 21.7476 21.0651 21.1451 21.7951C21.1105 21.8415 21.0629 21.8767 21.0083 21.896C20.9536 21.9153 20.8945 21.9178 20.8384 21.9034C20.7841 21.8889 20.7309 21.8705 20.6793 21.8484C20.5759 21.8051 20.5401 21.7884 20.4693 21.7576L20.4651 21.7559C19.9883 21.5478 19.5469 21.2666 19.1568 20.9226C19.0518 20.8309 18.9543 20.7309 18.8543 20.6342C18.5264 20.3203 18.2407 19.9651 18.0043 19.5776L17.9551 19.4984C17.9198 19.4452 17.8912 19.3878 17.8701 19.3276C17.8384 19.2051 17.9209 19.1067 17.9209 19.1067C17.9209 19.1067 18.1234 18.8851 18.2176 18.7651C18.296 18.6653 18.3692 18.5616 18.4368 18.4542C18.5351 18.2959 18.5659 18.1334 18.5143 18.0076C18.2809 17.4376 18.0393 16.8701 17.7909 16.3067C17.7418 16.1951 17.5959 16.1151 17.4634 16.0992C17.4184 16.0942 17.3734 16.0892 17.3284 16.0859C17.2165 16.0804 17.1044 16.0815 16.9926 16.0892V16.0901Z" fill="white"/>
<circle cx="20" cy="20" r="19" stroke="url(#paint0_linear)" stroke-width="2"/>
<defs>
<linearGradient id="paint0_linear" x1="0" y1="20" x2="40" y2="20" gradientUnits="userSpaceOnUse">
<stop stop-color="#FE2D2D"/>
<stop offset="1" stop-color="#ED2F1C"/>
</linearGradient>
</defs>
</svg>
